<svg xmlns="http://www.w3.org/2000/svg" version="1.1" xmlns:xlink="http://www.w3.org/1999/xlink" width="512" height="512" x="0" y="0" viewBox="0 0 64 64" style="enable-background:new 0 0 512 512" xml:space="preserve" class=""><g transform="matrix(-1,0,0,1,64.00884914398193,0)"><linearGradient id="a" x1="4.002" x2="59.998" y1="32" y2="32" gradientUnits="userSpaceOnUse"><stop offset="0" stop-color="#00c0ff"></stop><stop offset="1" stop-color="#5558ff"></stop></linearGradient><path fill="url(#a)" d="m14.26 25.074-9.25.05a1.004 1.004 0 0 1-.72-1.7l7.01-7.16s2.523 7.514 2.96 8.81zm27.579 4.86-1.36-1.83c-.088.282-5.96 21.44-5.96 21.44l12.09 7.979a1.007 1.007 0 0 0 1.52-1.07zm-1.79-5.74c.776-1.288 9.93-17.156 10.37-17.88l-19.31 5.86c-.001.01 8.953 12.007 8.94 12.02zm-14.82-6.53-12.03-2.03c.05.15 3.661 10.91 4.94 14.7.71-1.264 6.689-11.653 7.09-12.67zm34.73-7.88a1.015 1.015 0 0 0-.84-.7l-7.46-.92-9.65 16.63 2.03-.58 15.61-13.38a1.015 1.015 0 0 0 .31-1.05zm-39.68 23.35 14.15 9.26 4.03-14.5zm9.32-19.64s-9.586 17.598-9.62 17.64l18.74-5.39z" opacity="1" data-original="url(#a)" class=""></path></g></svg>